<svg xmlns="http://www.w3.org/2000/svg" viewBox="0 0 480 320" width="480" height="320">
<defs>
<linearGradient id="f1" x1="0" y1="0" x2="1" y2="0"><stop offset="0" stop-color="#F6EEDC"/><stop offset="1" stop-color="#EFE3CC"/></linearGradient>
<linearGradient id="f2" x1="0" y1="0" x2="1" y2="0"><stop offset="0" stop-color="#E9DCC2"/><stop offset="1" stop-color="#F3E8D2"/></linearGradient>
<linearGradient id="f3" x1="0" y1="0" x2="1" y2="0"><stop offset="0" stop-color="#F8F0DF"/><stop offset="1" stop-color="#EDE0C6"/></linearGradient>
<linearGradient id="pin" x1="0" y1="0" x2="0" y2="1"><stop offset="0" stop-color="#D9784C"/><stop offset="1" stop-color="#9A3F1E"/></linearGradient>
<linearGradient id="gold" x1="0" y1="0" x2="1" y2="1"><stop offset="0" stop-color="#FBE9B7"/><stop offset="0.5" stop-color="#D4AC55"/><stop offset="1" stop-color="#8A6A22"/></linearGradient>
<filter id="sd" x="-20%" y="-20%" width="140%" height="160%"><feGaussianBlur stdDeviation="9"/></filter>
<filter id="ps" x="-30%" y="-30%" width="160%" height="170%"><feDropShadow dx="0" dy="3" stdDeviation="2.5" flood-color="#5A2210" flood-opacity="0.4"/></filter>
</defs>
<ellipse cx="240" cy="276" rx="170" ry="16" fill="#8A6A44" opacity="0.28" filter="url(#sd)"/>
<path d="M70 96L170 80L170 252L70 268Z" fill="url(#f1)"/>
<path d="M170 80L270 100L270 270L170 252Z" fill="url(#f2)"/>
<path d="M270 100L370 82L370 254L270 270Z" fill="url(#f3)"/>
<path d="M370 82L410 90L410 262L370 254Z" fill="url(#f2)"/>
<g fill="none" stroke="#C9B48E" stroke-width="0.9" opacity="0.7"><path d="M70 96L170 80L270 100L370 82L410 90"/><path d="M70 268L170 252L270 270L370 254L410 262"/><path d="M170 80V252M270 100V270M370 82V254"/></g>
<g fill="none" stroke="#B9A47E" stroke-width="0.9" opacity="0.55"><path d="M84 150C110 138 140 156 160 140"/><path d="M84 176C110 164 140 182 160 166"/><path d="M184 130C210 144 240 128 260 146"/><path d="M184 156C210 170 240 154 260 172"/><path d="M284 140C310 128 340 146 360 130"/><path d="M284 166C310 154 340 172 360 156"/></g>
<path d="M190 196C210 160 240 214 262 176S320 150 350 130" fill="none" stroke="#A64B22" stroke-width="3" stroke-dasharray="0.1 9" stroke-linecap="round"/>
<circle cx="190" cy="196" r="5" fill="#FAF5EC" stroke="#A64B22" stroke-width="2"/>
<g filter="url(#ps)"><path d="M350 84C336 84 326 94 326 108C326 126 350 146 350 146S374 126 374 108C374 94 364 84 350 84Z" fill="url(#pin)"/><circle cx="350" cy="107" r="8" fill="#FFF3D8"/></g>
<g transform="translate(116 214)"><circle r="20" fill="#0F2547"/><circle r="20" fill="none" stroke="url(#gold)" stroke-width="2.4"/><path d="M0 -13L3.5 -3.5L13 0L3.5 3.5L0 13L-3.5 3.5L-13 0L-3.5 -3.5Z" fill="url(#gold)"/></g>
</svg>
